<?xml version="1.0" encoding="UTF-8"?>
<svg width="249px" height="249px" viewBox="0 0 249 249" version="1.1" xmlns="http://www.w3.org/2000/svg" xmlns:xlink="http://www.w3.org/1999/xlink">
    <!-- Generator: Sketch 48.2 (47327) - http://www.bohemiancoding.com/sketch -->
    <title>laravel</title>
    <desc>Created with Sketch.</desc>
    <defs>
        <linearGradient x1="26.5793581%" y1="0%" x2="73.4206419%" y2="100%" id="linearGradient-1">
            <stop stop-color="#3399FF" offset="0%"></stop>
            <stop stop-color="#0D2742" offset="100%"></stop>
        </linearGradient>
    </defs>
    <g id="Page-1" stroke="none" stroke-width="1" fill="none" fill-rule="evenodd">
        <g id="laravel" fill="url(#linearGradient-1)" fill-rule="nonzero">
            <path d="M248.032942,116.290459 C246.399073,113.562141 223.602704,71.8984596 219.595833,64.8503062 C215.588963,57.8021527 213.604979,59.0526315 211.154175,59.5641911 C208.664469,60.0757506 179.838344,67.180744 176.492801,67.9765033 C173.147259,68.8291025 171.04657,70.7616607 173.108357,74.9678168 C174.936735,78.7192533 193.88184,117.995657 198.083219,126.635329 L122.730716,153.009065 L62.7443664,6.64620007 C60.3713655,1.47376486 59.865644,-0.345113453 54.4194125,0.0527661783 C48.973181,0.393805862 7.38731336,5.45256118 4.43078769,5.85044081 C1.47426202,6.19148049 -1.79347688,8.1240387 1.16304879,18.3552292 C4.11957446,28.5864198 51.3461819,177.279722 52.6688381,181.599558 C53.9914943,185.919394 57.4148398,192.967548 65.4285805,190.12555 C73.6368294,187.226713 102.11284,176.370283 117.673501,170.402088 C125.88175,192.171788 142.648363,236.279587 145.760495,242.588822 C149.88407,251.057974 152.762793,249.636975 159.103762,246.794978 C164.083174,244.57822 236.751463,206.381775 240.019202,204.449217 C243.286941,202.459819 245.309826,201.09566 243.092432,196.264264 C241.458563,192.740188 222.280048,155.225822 212.243421,135.559201 C219.129014,132.887723 243.598154,123.395452 246.204565,122.315493 C249.277795,121.178694 249.705713,119.018776 248.032942,116.290459 Z M111.021318,157.215221 C110.12658,157.49942 67.9182863,172.277807 65.6619904,173.016726 C63.4056945,173.755645 63.4056945,173.414606 63.1333829,172.277807 C62.8610713,171.141008 12.9502498,20.6856671 12.2500201,18.8099488 C11.5497903,16.9342305 11.5886919,15.4563919 12.2500201,15.4563919 C12.9113482,15.4563919 52.1242149,10.3407967 53.4857728,10.2271168 C54.8862323,10.1134369 54.7306257,10.5681564 55.2363472,11.8186353 C55.2363472,11.8186353 110.554499,151.303866 111.488138,153.747984 C112.499581,156.192102 111.916056,156.931021 111.021318,157.215221 Z M230.060378,189.84135 C230.721706,191.376029 231.421936,192.399148 229.282345,193.479107 C227.181656,194.615906 157.820008,228.776714 156.497351,229.629314 C155.135794,230.481913 154.085449,230.766113 152.373776,227.071516 C150.662103,223.376919 128.099144,166.366452 128.099144,166.366452 L201.545466,138.458038 C203.373844,137.605439 203.957369,137.037039 205.124418,139.708517 C206.252566,142.436834 229.39905,188.306672 230.060378,189.84135 Z M234.767478,113.618981 C233.133609,114.130541 206.135861,123.907011 206.135861,123.907011 L184.078624,79.6855324 C183.456197,78.3782136 182.950476,77.1277348 184.506542,76.8435351 C186.062608,76.5593353 211.115273,69.9090615 212.243421,69.5680218 C213.371569,69.1701422 214.34411,68.7154226 215.74457,71.50058 C217.145029,74.2857374 236.20684,109.583345 236.945971,110.947503 C237.646201,112.254822 236.401348,113.050582 234.767478,113.618981 Z" id="Shape"></path>
        </g>
    </g>
</svg>