<?xml version="1.0" encoding="UTF-8"?>
<svg width="114px" height="250px" viewBox="0 0 114 250" version="1.1" xmlns="http://www.w3.org/2000/svg" xmlns:xlink="http://www.w3.org/1999/xlink">
    <!-- Generator: Sketch 48.2 (47327) - http://www.bohemiancoding.com/sketch -->
    <title>gulp</title>
    <desc>Created with Sketch.</desc>
    <defs>
        <linearGradient x1="0%" y1="39.7904293%" x2="100%" y2="60.2095707%" id="linearGradient-1">
            <stop stop-color="#3399FF" offset="0%"></stop>
            <stop stop-color="#0D2742" offset="100%"></stop>
        </linearGradient>
    </defs>
    <g id="Page-1" stroke="none" stroke-width="1" fill="none" fill-rule="evenodd">
        <g id="gulp" fill="url(#linearGradient-1)" fill-rule="nonzero">
            <path d="M96.5820312,190.966797 L89.6972656,202.978516 L87.4511719,242.138672 C87.4511719,246.484375 73.6328125,250 56.640625,250 C39.6484375,250 25.8300781,246.484375 25.8300781,242.138672 L22.9980469,203.369141 L15.7226562,190.966797 C35.8398438,199.414062 77.2460937,199.121094 96.5820312,190.966797 Z M0.87890625,67.2851563 L7.51953125,128.564453 C10.4003906,118.798828 17.6757812,105.615234 27.0507812,101.611328 C30.1269531,100.292969 33.2519531,100.292969 36.1816406,102.050781 C38.7207031,103.515625 40.8691406,106.591797 41.1132812,107.8125 C41.6992188,110.986328 40.1367188,112.255859 38.9160156,112.255859 C37.4511719,112.255859 36.328125,110.009766 35.5957031,108.691406 C33.59375,105.126953 30.5664062,104.980469 27.34375,107.324219 C23.9746094,109.765625 21.0449219,113.867188 18.9941406,117.431641 C16.5039062,121.728516 14.4042969,126.464844 13.1347656,131.201172 C12.4023437,133.935547 11.71875,138.330078 12.8417969,140.917969 C13.3300781,141.992188 14.0625,142.675781 15.234375,142.675781 C17.6757812,142.675781 21.2402344,139.453125 22.9492188,137.744141 C25.1464844,135.546875 27.9785156,132.128906 29.0527344,129.931641 L31.5917969,122.363281 C32.8613281,119.042969 36.4257812,119.628906 36.4257812,122.363281 C36.4257812,127.34375 34.6191406,129.003906 31.5429687,139.306641 C28.7109375,148.828125 27.8320312,151.904297 27.8320312,151.904297 C27.4902344,153.271484 26.171875,155.566406 24.7558594,155.566406 C24.1699219,155.566406 23.7304688,155.371094 23.4863281,154.980469 C22.9980469,154.296875 23.046875,152.392578 23.0957031,151.904297 C23.1933594,150.341797 26.171875,141.064453 26.6601562,139.599609 C25.6835938,140.673828 24.6582031,141.748047 23.5351563,142.822266 C20.8984375,145.3125 16.6503906,148.583984 13.0371094,148.583984 C11.3769531,148.583984 10.3027344,148.144531 9.27734375,147.412109 L12.9882812,186.279297 C13.9648437,188.720703 32.1289062,194.628906 56.0546875,194.628906 C80.0292969,194.628906 98.1933594,188.671875 99.1210937,186.279297 L104.443359,140.087891 C101.660156,142.626953 98.4375,145.751953 94.8730469,147.314453 C92.2363281,148.4375 86.3769531,149.169922 86.3769531,144.53125 C86.3769531,141.992188 90.8203125,137.304688 93.4082031,134.033203 C94.0917969,133.203125 95.703125,131.152344 95.703125,130.078125 C95.703125,128.662109 92.7734375,129.003906 89.9902344,131.298828 C88.4277344,132.617188 86.9628906,134.375 85.7421875,136.035156 C83.6425781,138.964844 82.5195312,141.503906 81.5917969,143.603516 C78.5644531,150.537109 79.5898437,147.802734 77.1484375,154.345703 C74.7070312,160.839844 75.0976562,160.107422 74.609375,161.181641 C74.1699219,162.109375 73.5351562,162.890625 72.65625,163.378906 C71.7285156,163.867188 70.4589844,163.818359 69.6777344,163.232422 C69.2382812,162.939453 69.0429688,162.304688 69.0429688,161.425781 C69.0429688,160.986328 69.0917969,160.546875 69.1894531,160.107422 C69.921875,157.128906 72.9980469,151.269531 76.5136719,143.359375 C77.2949219,141.552734 77.0019531,142.089844 76.9042969,142.236328 C73.8769531,145.166016 71.5820312,146.582031 69.8730469,147.363281 C67.0410156,148.632813 63.5253906,148.632813 62.7929687,145.361328 C62.7441406,145.166016 62.7441406,144.970703 62.6953125,144.775391 C56.9335938,149.267578 50.8300781,150.488281 52.9296875,140.820313 C50.6835938,144.824219 46.7773437,148.095703 41.9921875,148.095703 C39.9902344,148.095703 38.5253906,147.412109 37.7929688,145.605469 C36.6699219,142.919922 38.4277344,138.330078 40.0390625,133.984375 C40.8691406,131.787109 41.9921875,129.150391 43.5058594,126.074219 C44.2871094,124.414063 45.5566406,123.4375 47.2167969,123.876953 C47.5097656,123.974609 47.7539062,124.072266 47.9980469,124.21875 C49.2675781,125.097656 48.7792969,126.416016 48.1445312,127.734375 C46.2890625,131.396484 44.6777344,134.082031 43.6035156,137.890625 C43.1640625,139.501953 42.6269531,142.285156 44.3359375,142.285156 C45.5078125,142.285156 46.6308594,141.894531 47.7050781,141.113281 C49.9511719,139.453125 51.7578125,136.962891 53.125,134.521484 C54.1015625,132.763672 55.2734375,130.46875 55.859375,128.515625 C56.1035156,127.685547 56.3964844,126.904297 56.7382812,126.171875 C57.2753906,124.951172 58.0078125,123.681641 59.2773438,123.681641 C59.9121094,123.681641 60.4492188,123.925781 60.8398437,124.414063 C61.6699219,125.488281 61.4746094,126.611328 61.0351562,127.783203 C60.0585938,130.517578 58.7402344,132.958984 57.6660156,135.9375 C57.03125,137.646484 56.3476562,139.84375 56.3476562,141.650391 C56.3476562,143.310547 58.1542969,142.919922 59.6679687,142.236328 C60.8398437,141.699219 62.0117188,140.869141 62.9882812,140.039063 C63.5742187,137.646484 63.4277344,138.183594 75.8789062,106.738281 C76.5136719,105.126953 77.6855469,104.443359 78.8574219,104.443359 C79.4433594,104.443359 79.9316406,104.638672 80.4199219,104.980469 C81.25,105.615234 81.25,106.982422 80.9082031,108.007813 C80.5664062,108.935547 80.6152344,108.642578 78.7109375,113.134766 C76.171875,119.042969 74.5117188,123.291016 72.265625,128.710938 C71.3378906,130.957031 68.5058594,137.939453 68.0175781,139.599609 C67.7246094,140.673828 67.3828125,142.431641 68.5058594,142.431641 C71.1425781,142.431641 77.9296875,136.035156 79.7851562,134.130859 C79.8828125,133.984375 80.0292969,133.935547 80.2246094,133.837891 C80.5175781,132.910156 80.8105469,132.03125 81.0546875,131.152344 C81.7382812,129.296875 82.3730469,127.148438 83.6425781,125.634766 C84.0332031,125.146484 84.4726562,124.853516 84.9609375,124.853516 C86.328125,124.853516 87.0117187,125.439453 87.0117187,126.806641 C87.0117187,127.34375 86.6699219,129.296875 86.4746094,129.833984 C87.1582031,129.101563 87.890625,128.369141 88.671875,127.636719 C95.9960937,120.849609 101.220703,124.316406 101.220703,127.734375 C101.220703,131.347656 96.875,136.376953 94.4824219,139.160156 C93.7011719,140.087891 92.0898437,141.796875 92.0410156,142.285156 C92.0410156,142.919922 92.4804687,143.164063 93.1152344,143.164063 C94.0917969,143.164063 96.2402344,141.455078 97.0214844,140.869141 C99.4628906,138.964844 102.783203,136.035156 105.126953,133.984375 L112.353516,67.1875 C97.4609375,75.5371094 15.8691406,75.5859375 0.87890625,67.2851563 Z M113.037109,63.1347656 C113.037109,73.3886719 0.146484375,73.3886719 0.146484375,63.1347656 C0.146484375,58.8378906 25.4394531,55.3710938 56.5917969,55.3710938 C60.9863281,55.3710938 65.2832031,55.4199219 69.4335937,55.5664063 L75.5859375,31.7871094 L105.517578,0.29296875 C106.201172,-0.390625 108.349609,0.1953125 110.351562,2.00195312 C112.353516,3.80859375 113.574219,5.859375 112.939453,6.54296875 L112.890625,6.59179687 L84.9121094,36.1328125 L80.0292969,56.0058594 C99.5117187,57.2753906 113.037109,59.9609375 113.037109,63.1347656 Z M79.1503906,65.3808594 C79.1503906,64.9902344 78.7109375,64.6484375 77.9296875,64.3554688 L77.8320312,64.7460938 C77.8320312,65.3808594 75.390625,65.9179688 72.4121094,65.9179688 C69.4335937,65.9179688 66.9921875,65.3808594 66.9921875,64.7460938 C66.9921875,64.6972656 66.9921875,64.6484375 67.0410156,64.5996094 L67.1386719,64.2578125 C66.2597656,64.5507812 65.6738281,64.9414062 65.6738281,65.3808594 C65.6738281,66.40625 68.7011719,67.1875 72.3632812,67.1875 C76.1230469,67.2363281 79.1503906,66.40625 79.1503906,65.3808594 Z" id="Shape"></path>
        </g>
    </g>
</svg>