<?xml version="1.0" encoding="UTF-8"?>
<svg width="250px" height="250px" viewBox="0 0 250 250" version="1.1" xmlns="http://www.w3.org/2000/svg" xmlns:xlink="http://www.w3.org/1999/xlink">
    <!-- Generator: Sketch 48.2 (47327) - http://www.bohemiancoding.com/sketch -->
    <title>bootstrap</title>
    <desc>Created with Sketch.</desc>
    <defs>
        <linearGradient x1="0%" y1="0%" x2="100%" y2="100%" id="linearGradient-1">
            <stop stop-color="#3399FF" offset="0%"></stop>
            <stop stop-color="#0D2742" offset="100%"></stop>
        </linearGradient>
    </defs>
    <g id="Page-1" stroke="none" stroke-width="1" fill="none" fill-rule="evenodd">
        <g id="bootstrap" fill-rule="nonzero">
            <path d="M0,217.764868 C0,235.569799 14.43216,250 32.2351315,250 L217.764868,250 C235.569799,250 250,235.56784 250,217.764868 L250,32.2351315 C250,14.4302015 235.56784,0 217.764868,0 L32.2351315,0 C14.4302015,0 0,14.43216 0,32.2351315 L0,217.764868 Z" id="Shape" fill="url(#linearGradient-1)"></path>
            <path d="M103.669495,110.584077 L103.669495,75.1802674 L134.833328,75.1802674 C137.801327,75.1802674 140.663283,75.427597 143.419282,75.9222635 C146.175281,76.4169299 148.613243,77.3002497 150.733242,78.5722492 C152.853242,79.8442487 154.549216,81.6108883 155.821215,83.8722208 C157.093215,86.1335532 157.729205,89.0308421 157.729205,92.5641741 C157.729205,98.9241719 155.821234,103.517435 152.005235,106.344101 C148.189237,109.170766 143.313313,110.584077 137.377314,110.584077 L103.669495,110.584077 Z M70.3856738,49.3164062 L70.3856738,200.683594 L143.73728,200.683594 C150.521277,200.683594 157.12851,199.835606 163.559174,198.139607 C169.989838,196.443608 175.71375,193.828981 180.731081,190.295649 C185.748413,186.762317 189.741019,182.204388 192.709018,176.621723 C195.677016,171.039059 197.160993,164.431826 197.160993,156.799829 C197.160993,147.330499 194.864362,139.23929 190.27103,132.52596 C185.677698,125.812629 178.717139,121.113367 169.389143,118.428035 C176.17314,115.17737 181.296395,111.008101 184.75906,105.920103 C188.221726,100.832104 189.953032,94.4722021 189.953032,86.8402048 C189.953032,79.7735407 188.78705,73.837632 186.455051,69.0323004 C184.123052,64.2269688 180.837103,60.3756947 176.597104,57.4783624 C172.357105,54.5810302 167.269184,52.4963955 161.333186,51.224396 C155.397188,49.9523965 148.825289,49.3164062 141.617291,49.3164062 L70.3856738,49.3164062 Z M103.669495,174.819732 L103.669495,133.267956 L139.921301,133.267956 C147.129298,133.267956 152.923876,134.928597 157.305207,138.249929 C161.686539,141.571261 163.877172,147.118509 163.877172,154.89184 C163.877172,158.849172 163.205849,162.099788 161.863183,164.643787 C160.520517,167.187786 158.718544,169.201755 156.457212,170.685755 C154.195879,172.169754 151.581253,173.229738 148.613254,173.865737 C145.645255,174.501737 142.53597,174.819732 139.285304,174.819732 L103.669495,174.819732 Z" id="Shape" fill="#FFFFFF"></path>
        </g>
    </g>
</svg>