<?xml version="1.0" encoding="UTF-8"?>
<svg width="250px" height="188px" viewBox="0 0 250 188" version="1.1" xmlns="http://www.w3.org/2000/svg" xmlns:xlink="http://www.w3.org/1999/xlink">
    <!-- Generator: Sketch 48.2 (47327) - http://www.bohemiancoding.com/sketch -->
    <title>sass</title>
    <desc>Created with Sketch.</desc>
    <defs>
        <linearGradient x1="21.8864161%" y1="0%" x2="78.1135839%" y2="100%" id="linearGradient-1">
            <stop stop-color="#3399FF" offset="0%"></stop>
            <stop stop-color="#0D2742" offset="100%"></stop>
        </linearGradient>
    </defs>
    <g id="Page-1" stroke="none" stroke-width="1" fill="none" fill-rule="evenodd">
        <g id="sass" fill="url(#linearGradient-1)" fill-rule="nonzero">
            <path d="M214.992212,107.827103 C206.26947,107.866044 198.714953,109.968847 192.406542,113.084112 C190.109034,108.450156 187.733645,104.400312 187.344237,101.362928 C186.876947,97.8193146 186.370717,95.7165109 186.915888,91.5109034 C187.461059,87.305296 189.91433,81.347352 189.875389,80.9190031 C189.836449,80.4906542 189.330218,78.3489097 184.306854,78.3099688 C179.283489,78.271028 174.961059,79.2834891 174.454829,80.6074766 C173.948598,81.9314642 172.975078,84.9299065 172.390966,88.0451713 C171.495327,92.6012461 162.344237,108.878505 157.165109,117.367601 C155.451713,114.057632 154.010903,111.137072 153.699377,108.800623 C153.232087,105.257009 152.725857,103.154206 153.271028,98.9485981 C153.816199,94.7429907 156.26947,88.7850467 156.23053,88.3566978 C156.191589,87.9283489 155.685358,85.7866044 150.661994,85.7476636 C145.638629,85.7087227 141.316199,86.7211838 140.809969,88.0451713 C140.303738,89.3691589 139.758567,92.4844237 138.746106,95.482866 C137.733645,98.4813084 125.545171,125.584112 122.352025,132.632399 C120.716511,136.214953 119.314642,139.096573 118.302181,141.043614 C117.28972,142.990654 118.224299,141.160436 118.146417,141.394081 C117.28972,143.068536 116.783489,144.003115 116.783489,144.003115 L116.783489,144.042056 C116.121495,145.288162 115.38162,146.417445 115.031153,146.417445 C114.797508,146.417445 114.291277,143.146417 115.147975,138.668224 C116.978193,129.244548 121.300623,114.602804 121.261682,114.096573 C121.222741,113.823988 122.079439,111.292835 118.419003,109.929907 C114.875389,108.64486 113.590343,110.786604 113.278816,110.786604 C112.96729,110.786604 112.733645,111.565421 112.733645,111.565421 C112.733645,111.565421 116.666667,95.0545171 105.179128,95.0545171 C98.0140187,95.0545171 88.0451713,102.920561 83.1386293,110.046729 C80.0623053,111.721184 73.4034268,115.342679 66.394081,119.197819 C63.7071651,120.67757 60.9423676,122.196262 58.3333333,123.637072 C58.1386293,123.442368 57.982866,123.247664 57.788162,123.05296 C43.847352,108.17757 18.1074766,97.6635514 19.1978193,77.6869159 C19.5872274,70.4049844 22.1183801,51.2850467 68.6915888,28.076324 C106.853583,9.07320872 137.383178,14.2912773 142.640187,25.8956386 C150.194704,42.4454829 126.323988,73.2476636 86.682243,77.6869159 C71.5732087,79.3613707 63.6292835,73.5202492 61.6433022,71.3395639 C59.5794393,69.0420561 59.2679128,68.9252336 58.4890966,69.3535826 C57.2040498,70.0545171 58.0218069,72.0794393 58.4890966,73.2866044 C59.6573209,76.3629283 64.5249221,81.8146417 72.8193146,84.5404984 C80.1012461,86.9158879 97.8193146,88.2398754 119.23676,79.9454829 C143.302181,70.6775701 162.03271,44.8598131 156.542056,23.2476636 C150.934579,1.28504673 114.524922,-5.91900312 80.0623053,6.30841121 C59.5404984,13.5903427 37.3442368,25.0389408 21.3785047,39.953271 C2.41433022,57.7102804 -0.62305296,73.1697819 0.62305296,79.6339564 C5.0623053,102.570093 36.682243,117.523364 49.3380062,128.582555 C48.7149533,128.933022 48.1308411,129.244548 47.5856698,129.556075 C41.2383178,132.71028 17.1339564,145.327103 11.0981308,158.64486 C4.2834891,173.753894 12.2274143,184.579439 17.4454829,186.05919 C33.7227414,190.576324 50.3894081,182.437695 59.3457944,169.080997 C68.3021807,155.724299 67.211838,138.278816 63.0841121,130.334891 C63.0451713,130.218069 62.9672897,130.140187 62.9283489,130.023364 C64.5638629,129.049844 66.2383178,128.076324 67.9127726,127.102804 C71.1448598,125.194704 74.2990654,123.442368 77.0638629,121.923676 C75.5062305,126.129283 74.376947,131.191589 73.7928349,138.512461 C73.0919003,147.079439 76.635514,158.17757 81.2305296,162.538941 C83.2554517,164.44704 85.7087227,164.485981 87.2274143,164.485981 C92.6012461,164.485981 95.0155763,160.046729 97.7024922,154.750779 C101.012461,148.286604 103.933022,140.771028 103.933022,140.771028 C103.933022,140.771028 100.272586,161.098131 110.280374,161.098131 C113.94081,161.098131 117.601246,156.386293 119.23676,153.971963 L119.23676,154.010903 C119.23676,154.010903 119.314642,153.85514 119.509346,153.543614 C119.898754,152.959502 120.093458,152.609034 120.093458,152.609034 L120.093458,152.492212 C121.573209,149.961059 124.805296,144.158879 129.672897,134.579439 C135.981308,122.196262 142.017134,106.73676 142.017134,106.73676 C142.017134,106.73676 142.562305,110.514019 144.431464,116.783489 C145.521807,120.482866 147.819315,124.53271 149.649533,128.465732 C148.169782,130.490654 147.274143,131.658879 147.274143,131.658879 C147.274143,131.658879 147.274143,131.697819 147.313084,131.73676 C146.14486,133.294393 144.820872,134.968847 143.457944,136.604361 C138.47352,142.523364 132.554517,149.299065 131.775701,151.246106 C130.841121,153.543614 131.074766,155.257009 132.866044,156.580997 C134.190031,157.593458 136.52648,157.749221 138.979751,157.554517 C143.457944,157.242991 146.61215,156.152648 148.130841,155.451713 C150.545171,154.595016 153.34891,153.232087 155.996885,151.323988 C160.864486,147.741433 163.823988,142.601246 163.551402,135.825545 C163.395639,132.087227 162.188474,128.34891 160.708723,124.844237 C161.137072,124.221184 161.604361,123.55919 162.03271,122.897196 C169.742991,111.643302 175.700935,99.2990654 175.700935,99.2990654 C175.700935,99.2990654 176.246106,103.076324 178.115265,109.345794 C179.049844,112.5 180.880062,115.965732 182.554517,119.353583 C175.311526,125.233645 170.833333,132.048287 169.275701,136.52648 C166.394081,144.820872 168.652648,148.55919 172.897196,149.415888 C174.805296,149.805296 177.531153,148.909657 179.556075,148.05296 C182.087227,147.196262 185.124611,145.833333 187.96729,143.73053 C192.834891,140.147975 197.546729,135.124611 197.235202,128.309969 C197.11838,125.233645 196.261682,122.157321 195.132399,119.197819 C201.246106,116.627726 209.190031,115.225857 219.314642,116.394081 C241.004673,118.925234 245.249221,132.476636 244.431464,138.123053 C243.613707,143.808411 239.057632,146.923676 237.538941,147.858255 C236.020249,148.792835 235.55296,149.143302 235.669782,149.844237 C235.864486,150.856698 236.565421,150.817757 237.850467,150.584112 C239.641745,150.272586 249.221184,145.989097 249.649533,135.514019 C250.272586,122.274143 237.538941,107.71028 214.992212,107.827103 Z M47.8193146,164.174455 C40.6542056,172.001558 30.6074766,174.961059 26.2850467,172.468847 C21.6510903,169.781931 23.4813084,158.255452 32.3208723,149.922118 C37.694704,144.859813 44.6261682,140.186916 49.2211838,137.305296 C50.2725857,136.682243 51.7912773,135.747664 53.6604361,134.61838 C53.9719626,134.423676 54.1277259,134.345794 54.1277259,134.345794 C54.4781931,134.11215 54.8676012,133.917445 55.2570093,133.683801 C58.4890966,145.521807 55.3738318,155.957944 47.8193146,164.174455 Z M100.155763,128.582555 C97.6635514,134.696262 92.4065421,150.272586 89.2133956,149.454829 C86.4875389,148.753894 84.8130841,136.876947 88.6682243,125.194704 C90.6152648,119.314642 94.7429907,112.305296 97.1962617,109.579439 C101.129283,105.179128 105.451713,103.777259 106.464174,105.529595 C107.827103,107.827103 101.713396,124.766355 100.155763,128.582555 Z M143.380062,149.221184 C142.32866,149.766355 141.35514,150.116822 140.88785,149.844237 C140.537383,149.649533 141.316199,148.909657 141.316199,148.909657 C141.316199,148.909657 146.728972,143.107477 148.870717,140.459502 C150.116822,138.901869 151.557632,137.071651 153.115265,135.046729 C153.115265,135.241433 153.154206,135.436137 153.154206,135.669782 C153.115265,142.640187 146.417445,147.352025 143.380062,149.221184 Z M176.713396,141.627726 C175.934579,141.082555 176.051402,139.252336 178.660436,133.566978 C179.672897,131.347352 182.009346,127.609034 186.05919,124.02648 C186.52648,125.506231 186.799065,126.9081 186.799065,128.232087 C186.760125,136.993769 180.490654,140.264798 176.713396,141.627726 Z" id="Shape"></path>
        </g>
    </g>
</svg>